<svg width="19" height="18" viewBox="0 0 19 18" fill="none" xmlns="http://www.w3.org/2000/svg">
<path d="M1.43281 7.37571H9.11006C10.0389 7.38241 10.9375 7.04584 11.6334 6.43059C12.3293 5.81533 12.7736 4.96474 12.8808 4.04211C12.9842 3.0059 12.6408 1.97465 11.9366 1.20737C11.2375 0.439821 10.2479 0.00161553 9.20973 -0.000133038H7.13812C6.8049 -0.000133038 6.49701 0.177724 6.33038 0.466221C6.16377 0.754838 6.16377 1.11041 6.33038 1.39903C6.49699 1.68751 6.8049 1.86538 7.13812 1.86538H9.20973C9.73471 1.86605 10.234 2.09306 10.58 2.48801C10.9258 2.88298 11.0849 3.40783 11.0163 3.92842C10.9476 4.37506 10.7191 4.78155 10.3732 5.0723C10.0274 5.36319 9.58769 5.51842 9.13594 5.50944H1.43264C1.09942 5.50944 0.791531 5.68716 0.624903 5.97579C0.458274 6.26442 0.458295 6.61985 0.624903 6.90847C0.79151 7.19708 1.09942 7.37482 1.43264 7.37482L1.43281 7.37571Z" fill="#5E4FC1"/>
<path d="M18.4834 13.5293C18.3762 12.6067 17.9321 11.7562 17.2363 11.1411C16.5404 10.5258 15.642 10.1891 14.7132 10.1957H8.30006C7.96685 10.1957 7.65896 10.3734 7.49233 10.6621C7.32572 10.9507 7.32572 11.3063 7.49233 11.5947C7.65893 11.8834 7.96684 12.0611 8.30006 12.0611H14.7386C15.1903 12.0521 15.63 12.2075 15.9758 12.4982C16.3218 12.7891 16.5502 13.1956 16.6189 13.6421C16.6875 14.1627 16.5285 14.6875 16.1826 15.0825C15.8366 15.4776 15.3374 15.7045 14.8124 15.7053H12.74C12.4067 15.7053 12.0989 15.883 11.9322 16.1716C11.7656 16.4601 11.7656 16.8157 11.9322 17.1043C12.0988 17.3929 12.4067 17.5707 12.74 17.5707H14.8114C15.8501 17.5697 16.8405 17.1318 17.54 16.3641C18.2439 15.5967 18.587 14.5655 18.4832 13.5294L18.4834 13.5293Z" fill="#5E4FC1"/>
<path d="M6.24482 11.1293C6.24469 10.8818 6.14638 10.6446 5.9716 10.4696C5.79669 10.2945 5.55949 10.196 5.31215 10.1957H1.43272C1.09951 10.1957 0.791615 10.3734 0.624987 10.6621C0.458379 10.9507 0.458379 11.3062 0.624987 11.5947C0.791595 11.8833 1.0995 12.0611 1.43272 12.0611H5.31215C5.55925 12.0608 5.79616 11.9625 5.97095 11.7879C6.14574 11.6132 6.2443 11.3764 6.24484 11.1293L6.24482 11.1293Z" fill="#5E4FC1"/>
<path d="M13.2052 7.97813C13.2847 7.97813 13.3611 7.94652 13.4173 7.89027L14.0495 7.25811H14.0493C14.9181 7.43034 15.8143 7.14132 16.4188 6.49405C17.0233 5.84677 17.2505 4.93312 17.0193 4.0781C16.9917 3.97417 16.9106 3.89301 16.8067 3.86542C15.9516 3.6344 15.038 3.86154 14.3907 4.46597C13.7434 5.07053 13.4544 5.96666 13.6267 6.83543L12.9931 7.4657C12.9073 7.55155 12.8816 7.68053 12.9281 7.79263C12.9746 7.90472 13.0839 7.97771 13.2052 7.97785L13.2052 7.97813Z" fill="#5E4FC1"/>
<path d="M6.73133 13.3243L6.09917 12.6921C5.98145 12.5784 5.79435 12.5802 5.67862 12.6959C5.56289 12.8116 5.56129 12.9987 5.675 13.1164L6.30676 13.7486V13.7485C6.14403 14.5851 6.40573 15.4479 7.00574 16.0531C7.62972 16.6705 9.02447 17.1949 9.69973 16.5031H9.69987C9.93063 15.6484 9.70362 14.7351 9.09959 14.088C8.49543 13.4407 7.59985 13.1516 6.73132 13.3231L6.73133 13.3243Z" fill="#5E4FC1"/>
</svg>
